<svg xmlns="http://www.w3.org/2000/svg" width="100" height="100" viewBox="0 0 100 100"><path d="M100,50L99.98984505466626,66.33966164011753L99.95936782713866,70.58250251560278L99.90853102671399,73.55310633994634L99.8372721129341,75.91125444209686L99.7455027038624,77.89502453140456L99.63310773181365,79.62076753282271L99.49994433003971,81.1550459839934L99.34584042820704,82.53988616971444L99.17059302805217,83.80369119756816L98.97396612310978,84.9666397544782L98.75568821755874,86.043626168662L98.515449388624,87.04598139790194L98.25289782409911,87.98253891887627L97.96763575075796,88.86032555907353L97.65921464984683,89.68502629920499L97.32712963135276,90.46130695180909L96.97081280782348,91.19304422229169L96.58962546912304,91.88349354211896L96.18284880887481,92.5354139731916L95.7496728876445,93.15116280543083L95.28918343183318,93.73276831831063L94.80034595328542,94.28198652207345L94.28198652207345,94.80034595328542L93.73276831831063,95.28918343183318L93.15116280543083,95.7496728876445L92.5354139731916,96.18284880887481L91.88349354211896,96.58962546912304L91.19304422229169,96.97081280782348L90.46130695180909,97.32712963135276L89.68502629920499,97.65921464984683L88.86032555907353,97.96763575075796L87.98253891887627,98.25289782409911L87.04598139790195,98.515449388624L86.043626168662,98.75568821755874L84.9666397544782,98.97396612310976L83.80369119756816,99.17059302805217L82.53988616971444,99.34584042820704L81.15504598399342,99.49994433003971L79.62076753282271,99.63310773181365L77.89502453140457,99.7455027038624L75.91125444209688,99.8372721129341L73.55310633994634,99.90853102671399L70.5825025156028,99.95936782713866L66.33966164011754,99.98984505466626L50.000197074434794,100L33.66033835988251,99.98984505466626L29.417497484397217,99.95936782713866L26.44689366005366,99.908531026714L24.088745557903145,99.8372721129341L22.104975468595438,99.7455027038624L20.379232467177307,99.63310773181365L18.84495401600659,99.49994433003971L17.460113830285565,99.34584042820704L16.19630880243185,99.17059302805217L15.033360245521806,98.97396612310978L13.956373831337991,98.75568821755874L12.95401860209806,98.515449388624L12.01746108112372,98.25289782409911L11.13967444092647,97.96763575075798L10.314973700795015,97.65921464984683L9.538693048190908,97.32712963135276L8.80695577770831,96.97081280782348L8.116506457881052,96.58962546912304L7.464586026808398,96.18284880887481L6.848837194569171,95.7496728876445L6.267231681689367,95.28918343183318L5.71801347792654,94.80034595328542L5.199654046714585,94.28198652207345L4.710816568166827,93.73276831831063L4.250327112355514,93.15116280543083L3.8171511911251983,92.5354139731916L3.4103745308769575,91.88349354211896L3.029187192176522,91.19304422229169L2.6728703686472386,90.46130695180909L2.340785350153169,89.68502629920499L2.0323642492420433,88.86032555907354L1.7471021759008991,87.98253891887626L1.4845506113759868,87.04598139790195L1.2443117824412582,86.04362616866202L1.0260338768902315,84.9666397544782L0.829406971947833,83.80369119756816L0.6541595717929596,82.53988616971446L0.5000556699602967,81.1550459839934L0.3668922681863478,79.62076753282271L0.2544972961375933,77.89502453140456L0.16272788706589125,75.91125444209689L0.09146897328601256,73.55310633994637L0.04063217286133636,70.5825025156028L0.010154945333738397,66.33966164011748L0,50.00024829822879L0.010154945333738397,33.66033835988249L0.04063217286133636,29.417497484397266L0.09146897328600545,26.446893660053682L0.16272788706589125,24.088745557903135L0.2544972961375933,22.104975468595427L0.3668922681863478,20.379232467177307L0.5000556699602967,18.8449540160066L0.6541595717929596,17.46011383028557L0.829406971947833,16.196308802431837L1.0260338768902244,15.033360245521806L1.244311782441251,13.956373831337999L1.4845506113759868,12.954018602098067L1.7471021759008991,12.017461081123734L2.032364249242036,11.13967444092647L2.340785350153176,10.314973700795008L2.6728703686472386,9.538693048190908L3.029187192176522,8.80695577770831L3.4103745308769504,8.116506457881052L3.817151191125191,7.464586026808412L4.250327112355507,6.848837194569171L4.71081656816682,6.267231681689367L5.199654046714585,5.71801347792654L5.718013477926533,5.199654046714592L6.26723168168936,4.710816568166827L6.848837194569164,4.250327112355514L7.464586026808405,3.817151191125191L8.116506457881044,3.4103745308769575L8.806955777708296,3.029187192176529L9.5386930481909,2.6728703686472386L10.314973700795,2.340785350153176L11.13967444092647,2.032364249242036L12.017461081123713,1.7471021759009062L12.95401860209806,1.4845506113759868L13.956373831337984,1.2443117824412582L15.033360245521784,1.0260338768902315L16.196308802431844,0.829406971947833L17.46011383028557,0.6541595717929596L18.84495401600659,0.5000556699602967L20.37923246717727,0.3668922681863549L22.104975468595438,0.2544972961375933L24.088745557903167,0.16272788706589125L26.44689366005366,0.09146897328600545L29.41749748439719,0.04063217286133636L33.660338359882374,0.010154945333738397L49.9997157694811,0L66.33966164011757,0.010154945333738397L70.58250251560277,0.04063217286133636L73.55310633994631,0.09146897328600545L75.91125444209686,0.16272788706589125L77.89502453140454,0.2544972961375933L79.62076753282267,0.3668922681863478L81.1550459839934,0.5000556699602967L82.53988616971444,0.6541595717929596L83.80369119756814,0.829406971947833L84.96663975447818,1.0260338768902244L86.043626168662,1.244311782441251L87.04598139790195,1.4845506113759868L87.98253891887627,1.7471021759008991L88.86032555907352,2.032364249242029L89.68502629920499,2.340785350153176L90.46130695180909,2.6728703686472315L91.19304422229169,3.029187192176522L91.88349354211894,3.4103745308769504L92.5354139731916,3.8171511911251983L93.15116280543083,4.250327112355507L93.73276831831062,4.710816568166813L94.28198652207345,5.199654046714578L94.80034595328542,5.718013477926533L95.28918343183318,6.267231681689374L95.7496728876445,6.848837194569164L96.18284880887481,7.464586026808391L96.58962546912304,8.116506457881037L96.97081280782348,8.80695577770829L97.32712963135275,9.53869304819088L97.65921464984683,10.314973700795L97.96763575075796,11.13967444092647L98.25289782409911,12.017461081123734L98.515449388624,12.95401860209806L98.75568821755874,13.956373831337984L98.97396612310978,15.033360245521806L99.17059302805217,16.196308802431844L99.34584042820704,17.460113830285536L99.49994433003971,18.844954016006582L99.63310773181365,20.379232467177268L99.7455027038624,22.104975468595384L99.8372721129341,24.088745557903113L99.90853102671399,26.446893660053654L99.95936782713866,29.417497484397273L99.98984505466626,33.6603383598825L100,49.99968716383489Z" fill="white"/></svg>