<svg xmlns="http://www.w3.org/2000/svg" width="100" height="100" viewBox="0 0 100 100"><path d="M100,50L99.98476835544744,59.340703493648235L99.93906412468661,63.2057254386237L99.86285930851422,66.16543096144157L99.75610687999942,68.65295559422592L99.61874023522282,70.83555720798765L99.45067241033749,72.79866722079161L99.25179505043437,74.59277818789836L99.02197711073879,76.25058836564426L98.76106326504667,77.79464851257106L98.46887198981189,79.24124413075086L98.14519328465687,80.60255681376607L97.78978598096566,81.88795395897172L97.40237457921194,83.10480126768161L96.98264554223525,84.25899746000643L96.53024295510498,85.35533905932738L96.04476344158003,86.39777686319609L95.52575020126088,87.38960094300108L94.97268599869668,88.33357706673331L94.38498489373185,89.23204924948664L93.76198244821006,90.08701815072241L93.10292407358793,90.90020190533471L92.4069510911434,91.67308395292449L91.6730839529245,92.40695109114338L90.90020190533471,93.10292407358793L90.08701815072241,93.76198244821006L89.23204924948664,94.38498489373185L88.33357706673331,94.97268599869668L87.38960094300108,95.52575020126088L86.39777686319609,96.04476344158003L85.35533905932738,96.53024295510498L84.25899746000643,96.98264554223525L83.10480126768161,97.40237457921194L81.88795395897174,97.78978598096566L80.60255681376607,98.14519328465687L79.24124413075086,98.46887198981187L77.79464851257106,98.76106326504667L76.25058836564426,99.02197711073879L74.59277818789838,99.25179505043437L72.79866722079163,99.45067241033749L70.83555720798765,99.61874023522282L68.65295559422593,99.75610687999941L66.16543096144157,99.86285930851422L63.205725438623716,99.93906412468661L59.340703493648256,99.98476835544744L50.000000391255476,100L40.659296506351794,99.98476835544744L36.79427456137629,99.93906412468661L33.83456903855844,99.86285930851423L31.347044405774096,99.75610687999942L29.16444279201236,99.61874023522282L27.20133277920839,99.45067241033749L25.40722181210164,99.25179505043437L23.749411634355745,99.02197711073879L22.205351487428942,98.76106326504667L20.758755869249136,98.46887198981189L19.397443186233932,98.14519328465687L18.11204604102828,97.78978598096566L16.89519873231839,97.40237457921194L15.74100253999358,96.98264554223525L14.64466094067263,96.53024295510498L13.602223136803921,96.04476344158003L12.61039905699893,95.52575020126088L11.666422933266688,94.97268599869668L10.767950750513357,94.38498489373185L9.912981849277585,93.76198244821006L9.099798094665282,93.10292407358793L8.326916047075514,92.40695109114341L7.593048908856602,91.67308395292449L6.897075926412079,90.90020190533471L6.238017551789952,90.08701815072243L5.615015106268146,89.23204924948665L5.027314001303317,88.33357706673333L4.47424979873913,87.38960094300108L3.955236558419969,86.39777686319609L3.469757044895019,85.35533905932738L3.0173544577647604,84.25899746000644L2.59762542078807,83.10480126768161L2.210214019034339,81.88795395897174L1.8548067153431376,80.60255681376609L1.5311280101881195,79.24124413075087L1.2389367349533273,77.79464851257106L0.9780228892612186,76.25058836564429L0.7482049495656327,74.59277818789836L0.5493275896625036,72.79866722079161L0.3812597647771838,70.83555720798765L0.24389312000058538,68.65295559422593L0.1371406914857829,66.16543096144159L0.0609358753133975,63.20572543862373L0.015231644552564205,59.340703493648206L0,50.000000553318806L0.015231644552564205,40.65929650635177L0.0609358753133975,36.79427456137634L0.1371406914857758,33.83456903855846L0.24389312000058538,31.347044405774085L0.3812597647771838,29.16444279201235L0.5493275896625036,27.201332779208393L0.7482049495656327,25.407221812101653L0.9780228892612186,23.749411634355745L1.2389367349533273,22.205351487428928L1.5311280101881124,20.75875586924914L1.8548067153431305,19.397443186233932L2.210214019034332,18.11204604102829L2.597625420788063,16.895198732318413L3.0173544577647604,15.741002539993573L3.469757044895019,14.644660940672622L3.955236558419969,13.602223136803921L4.47424979873913,12.61039905699893L5.02731400130331,11.666422933266688L5.615015106268139,10.767950750513364L6.2380175517899445,9.912981849277585L6.897075926412072,9.099798094665282L7.593048908856609,8.3269160470755L8.326916047075493,7.593048908856616L9.099798094665282,6.897075926412079L9.912981849277578,6.238017551789952L10.767950750513364,5.615015106268139L11.666422933266674,5.027314001303317L12.610399056998908,4.474249798739137L13.602223136803907,3.955236558419969L14.644660940672608,3.469757044895026L15.741002539993573,3.0173544577647533L16.895198732318384,2.597625420788077L18.11204604102828,2.210214019034332L19.39744318623392,1.8548067153431376L20.758755869249107,1.5311280101881195L22.20535148742894,1.2389367349533273L23.74941163435575,0.9780228892612186L25.40722181210164,0.7482049495656327L27.201332779208354,0.5493275896625107L29.16444279201236,0.3812597647771838L31.347044405774124,0.24389312000057828L33.83456903855844,0.1371406914857758L36.79427456137627,0.0609358753133975L40.659296506351666,0.015231644552564205L49.99999932232563,0L59.34070349364828,0.015231644552564205L63.205725438623695,0.0609358753133975L66.16543096144153,0.1371406914857758L68.65295559422592,0.24389312000057828L70.83555720798762,0.3812597647771767L72.79866722079157,0.5493275896625036L74.59277818789835,0.7482049495656256L76.25058836564428,0.9780228892612186L77.79464851257106,1.2389367349533273L79.24124413075083,1.5311280101881124L80.60255681376607,1.8548067153431305L81.88795395897174,2.210214019034339L83.10480126768161,2.59762542078807L84.25899746000641,3.017354457764746L85.35533905932738,3.469757044895019L86.39777686319607,3.955236558419962L87.38960094300106,4.474249798739116L88.33357706673331,5.02731400130331L89.23204924948666,5.615015106268153L90.08701815072241,6.2380175517899445L90.90020190533471,6.8970759264120645L91.67308395292449,7.593048908856588L92.40695109114338,8.326916047075493L93.10292407358793,9.099798094665282L93.76198244821005,9.912981849277578L94.38498489373185,10.767950750513336L94.97268599869668,11.666422933266674L95.52575020126086,12.610399056998908L96.04476344158002,13.602223136803886L96.53024295510497,14.644660940672608L96.98264554223525,15.741002539993573L97.40237457921194,16.895198732318413L97.78978598096566,18.11204604102828L98.14519328465687,19.39744318623392L98.46887198981189,20.75875586924914L98.76106326504667,22.20535148742893L99.02197711073879,23.74941163435571L99.25179505043437,25.407221812101632L99.45067241033749,27.20133277920835L99.61874023522282,29.1644427920123L99.75610687999941,31.347044405774064L99.86285930851422,33.834569038558435L99.93906412468661,36.79427456137635L99.98476835544744,40.65929650635178L100,49.99999921748904Z" fill="white"/></svg>