<svg xmlns="http://www.w3.org/2000/svg" width="100" height="100" viewBox="0 0 100 100"><path d="M100,50L99.97969217179082,55.339690850270564L99.91876867374674,58.47278819609589L99.81722938488946,61.09497636521642L99.6750738331728,63.42786213526169L99.49230078519963,65.56264787215325L99.2689076623564,67.54779738467047L99.0048897735406,69.41273780529488L98.70023935132144,71.17688383875945L98.35494437460665,72.85379077161093L97.96898715655007,74.4533179143891L97.54234267135593,75.98285974772513L97.07497658760276,77.44809475467393L96.56684296845896,78.85346525447902L96.01788159034788,80.20249805114366L95.4280148208035,81.49802624737183L94.79714398285736,82.74234720497032L94.12514511655186,83.9373378459936L93.41186402706316,85.0845406258544L92.6571104820678,86.18522883741565L91.86065138652947,87.24045702921595L91.02220271844465,88.2511004956607L90.14141995068113,89.2178866068219L89.2178866068219,90.14141995068113L88.2511004956607,91.02220271844465L87.24045702921595,91.86065138652947L86.18522883741566,92.6571104820678L85.0845406258544,93.41186402706316L83.93733784599358,94.12514511655188L82.74234720497032,94.79714398285736L81.49802624737184,95.4280148208035L80.20249805114368,96.01788159034787L78.85346525447902,96.56684296845896L77.44809475467393,97.07497658760276L75.98285974772512,97.54234267135593L74.4533179143891,97.96898715655007L72.85379077161093,98.35494437460665L71.17688383875945,98.70023935132144L69.4127378052949,99.0048897735406L67.54779738467047,99.2689076623564L65.56264787215325,99.49230078519963L63.427862135261705,99.6750738331728L61.09497636521642,99.81722938488946L58.472788196095905,99.91876867374674L55.33969085027057,99.97969217179082L50.000000000776765,100L44.660309149729464,99.97969217179082L41.5272118039041,99.91876867374674L38.90502363478359,99.81722938488946L36.57213786473832,99.6750738331728L34.43735212784675,99.49230078519963L32.45220261532954,99.2689076623564L30.58726219470512,99.0048897735406L28.82311616124055,98.70023935132144L27.146209228389075,98.35494437460665L25.546682085610897,97.96898715655007L24.01714025227487,97.54234267135593L22.551905245326072,97.07497658760278L21.146534745520977,96.56684296845896L19.79750194885634,96.01788159034788L18.50197375262818,95.4280148208035L17.2576527950297,94.79714398285736L16.062662154006425,94.12514511655188L14.915459374145598,93.41186402706316L13.814771162584336,92.6571104820678L12.759542970784054,91.86065138652947L11.748899504339313,91.02220271844465L10.782113393178093,90.14141995068115L9.858580049318867,89.2178866068219L8.977797281555347,88.2511004956607L8.139348613470538,87.24045702921595L7.342889517932221,86.18522883741566L6.58813597293684,85.0845406258544L5.87485488344813,83.9373378459936L5.202856017142629,82.74234720497032L4.57198517919651,81.49802624737183L3.982118409652138,80.20249805114369L3.433157031541043,78.853465254479L2.9250234123972447,77.44809475467395L2.457657328644075,75.98285974772514L2.031012843449929,74.4533179143891L1.6450556253933541,72.85379077161093L1.2997606486785571,71.17688383875948L0.9951102264594027,69.41273780529488L0.7310923376436023,67.54779738467047L0.5076992148003612,65.56264787215324L0.324926166827197,63.427862135261705L0.1827706151105417,61.09497636521644L0.08123132625325269,58.47278819609591L0.020307828209183754,55.339690850270536L0,50.00000000123304L0.020307828209183754,44.66030914972944L0.08123132625325269,41.527211803904144L0.1827706151105417,38.90502363478361L0.324926166827197,36.57213786473831L0.5076992148003612,34.437352127846744L0.7310923376436023,32.45220261532954L0.9951102264594027,30.58726219470513L1.2997606486785571,28.823116161240552L1.6450556253933541,27.146209228389058L2.031012843449922,25.5466820856109L2.4576573286440677,24.01714025227487L2.9250234123972305,22.551905245326083L3.433157031541043,21.146534745521002L3.9821184096521307,19.797501948856322L4.57198517919651,18.501973752628164L5.202856017142629,17.2576527950297L5.874854883448123,16.062662154006425L6.588135972936826,14.915459374145598L7.342889517932214,13.814771162584357L8.139348613470531,12.759542970784054L8.977797281555347,11.748899504339313L9.858580049318867,10.782113393178086L10.78211339317808,9.858580049318874L11.748899504339313,8.977797281555347L12.759542970784047,8.139348613470538L13.814771162584343,7.342889517932214L14.915459374145598,6.58813597293684L16.062662154006404,5.87485488344813L17.257652795029685,5.202856017142629L18.501973752628153,4.571985179196517L19.79750194885633,3.9821184096521236L21.146534745520967,3.4331570315410502L22.551905245326072,2.9250234123972305L24.01714025227486,2.457657328644075L25.54668208561087,2.031012843449936L27.146209228389065,1.6450556253933541L28.82311616124056,1.29976064867855L30.58726219470512,0.9951102264594027L32.4522026153295,0.7310923376436023L34.43735212784675,0.5076992148003612L36.572137864738345,0.324926166827197L38.90502363478359,0.1827706151105417L41.52721180390408,0.08123132625325269L44.66030914972937,0.020307828209183754L49.99999999838426,0L55.33969085027059,0.020307828209183754L58.47278819609589,0.08123132625325269L61.09497636521638,0.1827706151105417L63.42786213526169,0.324926166827197L65.56264787215322,0.5076992148003541L67.54779738467043,0.7310923376435952L69.41273780529487,0.9951102264594027L71.17688383875947,1.2997606486785571L72.85379077161092,1.645055625393347L74.45331791438907,2.031012843449922L75.98285974772512,2.4576573286440677L77.44809475467395,2.9250234123972447L78.85346525447902,3.433157031541043L80.20249805114366,3.9821184096521236L81.49802624737184,4.57198517919651L82.74234720497029,5.202856017142629L83.93733784599357,5.8748548834481085L85.0845406258544,6.588135972936826L86.18522883741568,7.342889517932228L87.24045702921595,8.139348613470524L88.25110049566067,8.977797281555333L89.21788660682189,9.858580049318846L90.14141995068113,10.78211339317808L91.02220271844465,11.74889950433932L91.86065138652947,12.759542970784047L92.65711048206776,13.814771162584314L93.41186402706316,14.915459374145591L94.12514511655186,16.062662154006397L94.79714398285735,17.257652795029657L95.42801482080348,18.501973752628153L96.01788159034787,19.79750194885633L96.56684296845896,21.146534745521002L97.07497658760278,22.551905245326065L97.54234267135593,24.017140252274853L97.96898715655007,25.546682085610904L98.35494437460665,27.146209228389058L98.70023935132144,28.823116161240513L99.0048897735406,30.58726219470511L99.2689076623564,32.4522026153295L99.49230078519963,34.437352127846694L99.6750738331728,36.57213786473829L99.81722938488946,38.90502363478359L99.91876867374674,41.52721180390415L99.97969217179082,44.66030914972945L100,49.99999999804267Z" fill="white"/></svg>