<svg xmlns="http://www.w3.org/2000/svg" width="100" height="100" viewBox="0 0 100 100"><path d="M100,50L99.98781431310792,63.06464670172324L99.9512453557617,67.23470331648232L99.89025732163584,70.2611378142714L99.80479014363482,72.71915245941761L99.69475890140535,74.82207573369725L99.56005297627792,76.67605280610863L99.40053493744128,78.34262528457316L99.21603913760623,79.86106097890372L99.00636999010757,81.25812690024583L98.77129989208377,82.5529745144485L98.51056674975266,83.75982379136858L98.22387105148903,84.88954648856273L97.91087242191965,85.95065347387145L97.5711855749536,86.94993857097907L97.2043755647451,87.89291416275995L96.80995220996198,88.7841151386687L96.38736353697095,89.62731661544322L95.93598804971904,90.42569345528551L95.45512558556526,91.18193945928371L94.94398645349553,91.89835797806822L94.40167846902895,92.57693185102013L93.82719139165994,93.21937812585986L93.21937812585986,93.82719139165994L92.57693185102013,94.40167846902895L91.89835797806822,94.94398645349553L91.18193945928371,95.45512558556526L90.42569345528551,95.93598804971904L89.62731661544322,96.38736353697097L88.7841151386687,96.80995220996198L87.89291416275995,97.2043755647451L86.94993857097907,97.5711855749536L85.95065347387145,97.91087242191965L84.88954648856273,98.22387105148903L83.75982379136858,98.51056674975266L82.5529745144485,98.77129989208377L81.25812690024583,99.00636999010757L79.86106097890372,99.21603913760623L78.34262528457317,99.40053493744128L76.67605280610863,99.56005297627792L74.82207573369725,99.69475890140535L72.71915245941764,99.80479014363482L70.2611378142714,99.89025732163584L67.23470331648234,99.9512453557617L63.064646701723255,99.98781431310792L50.00001635921073,100L36.935353298276794,99.98781431310792L32.76529668351767,99.9512453557617L29.738862185728625,99.89025732163584L27.280847540582386,99.80479014363482L25.17792426630276,99.69475890140535L23.323947193891385,99.56005297627792L21.657374715426837,99.40053493744128L20.138939021096284,99.21603913760623L18.74187309975418,99.00636999010757L17.447025485551507,98.77129989208377L16.240176208631425,98.51056674975266L15.110453511437271,98.22387105148903L14.049346526128538,97.91087242191963L13.050061429020936,97.5711855749536L12.107085837240056,97.2043755647451L11.215884861331311,96.80995220996198L10.372683384556787,96.38736353697097L9.574306544714489,95.93598804971904L8.818060540716282,95.45512558556526L8.10164202193178,94.94398645349553L7.423068148979873,94.40167846902895L6.780621874140138,93.82719139165994L6.1728086083400555,93.21937812585986L5.598321530971056,92.57693185102013L5.056013546504481,91.89835797806822L4.544874414434744,91.18193945928371L4.06401195028095,90.42569345528551L3.612636463029041,89.62731661544322L3.1900477900380295,88.7841151386687L2.7956244352549007,87.89291416275995L2.428814425046397,86.94993857097909L2.089127578080351,85.95065347387145L1.77612894851098,84.88954648856273L1.4894332502473446,83.75982379136858L1.2287001079162252,82.5529745144485L0.9936300098924349,81.25812690024583L0.7839608623937764,79.86106097890374L0.5994650625587212,78.34262528457316L0.43994702372209105,76.67605280610863L0.3052410985946423,74.82207573369723L0.19520985636518873,72.71915245941764L0.10974267836415663,70.26113781427141L0.04875464423830067,67.23470331648235L0.012185686892088654,63.0646467017232L0,50.00002158610797L0.012185686892088654,36.93535329827677L0.04875464423830067,32.76529668351772L0.10974267836415663,29.738862185728646L0.19520985636518873,27.280847540582375L0.3052410985946423,25.17792426630275L0.43994702372209105,23.323947193891385L0.5994650625587212,21.657374715426847L0.7839608623937693,20.13893902109629L0.9936300098924349,18.741873099754162L1.2287001079162252,17.447025485551507L1.4894332502473446,16.240176208631425L1.7761289485109728,15.110453511437285L2.089127578080351,14.049346526128552L2.428814425046397,13.050061429020928L2.7956244352549007,12.107085837240042L3.1900477900380295,11.215884861331311L3.612636463029034,10.372683384556787L4.064011950280943,9.574306544714489L4.544874414434744,8.818060540716296L5.056013546504474,8.10164202193178L5.598321530971049,7.423068148979873L6.172808608340063,6.780621874140131L6.780621874140124,6.17280860834007L7.4230681489798656,5.598321530971056L8.101642021931774,5.056013546504481L8.818060540716289,4.544874414434744L9.574306544714482,4.06401195028095L10.372683384556765,3.612636463029048L11.215884861331304,3.1900477900380295L12.107085837240035,2.795624435254908L13.050061429020928,2.428814425046397L14.04934652612853,2.089127578080358L15.110453511437271,1.77612894851098L16.24017620863141,1.4894332502473446L17.447025485551478,1.2287001079162323L18.741873099754176,0.9936300098924349L20.13893902109629,0.7839608623937693L21.657374715426837,0.5994650625587212L23.323947193891353,0.43994702372209105L25.177924266302757,0.3052410985946423L27.28084754058241,0.19520985636518873L29.738862185728625,0.10974267836415663L32.76529668351765,0.04875464423830067L36.93535329827666,0.012185686892088654L49.999974613031235,0L63.06464670172329,0.012185686892088654L67.23470331648232,0.04875464423830067L70.26113781427135,0.10974267836415663L72.71915245941761,0.19520985636518873L74.82207573369723,0.3052410985946423L76.67605280610859,0.43994702372208394L78.34262528457315,0.5994650625587141L79.86106097890372,0.7839608623937764L81.25812690024581,0.9936300098924349L82.55297451444847,1.2287001079162252L83.75982379136858,1.4894332502473446L84.88954648856274,1.77612894851098L85.95065347387145,2.089127578080351L86.94993857097907,2.42881442504639L87.89291416275995,2.7956244352549007L88.78411513866868,3.1900477900380224L89.6273166154432,3.612636463029027L90.42569345528551,4.064011950280943L91.18193945928373,4.5448744144347515L91.89835797806822,5.056013546504474L92.57693185102012,5.598321530971042L93.21937812585986,6.172808608340048L93.82719139165994,6.780621874140124L94.40167846902895,7.42306814897988L94.94398645349551,8.101642021931774L95.45512558556524,8.818060540716267L95.93598804971904,9.574306544714482L96.38736353697095,10.372683384556765L96.80995220996195,11.215884861331283L97.20437556474509,12.107085837240035L97.5711855749536,13.050061429020928L97.91087242191965,14.049346526128552L98.22387105148903,15.110453511437271L98.51056674975266,16.24017620863141L98.77129989208377,17.447025485551514L99.00636999010757,18.74187309975417L99.21603913760623,20.13893902109626L99.40053493744128,21.65737471542683L99.56005297627792,23.32394719389135L99.69475890140535,25.177924266302703L99.80479014363482,27.28084754058235L99.89025732163584,29.738862185728618L99.9512453557617,32.76529668351773L99.98781431310792,36.93535329827678L100,49.99997151695977Z" fill="white"/></svg>